<?xml version="1.0" encoding="utf-8"?>
<!-- Generator: Adobe Illustrator 27.8.0, SVG Export Plug-In . SVG Version: 6.00 Build 0)  -->
<svg version="1.1" id="Layer_1" xmlns="http://www.w3.org/2000/svg" xmlns:xlink="http://www.w3.org/1999/xlink" x="0px" y="0px"
	 viewBox="0 0 1366 768" style="enable-background:new 0 0 1366 768;" xml:space="preserve">
<style type="text/css">
	.st0{fill:#134C84;}
</style>
<g>
	<path class="st0" d="M195.98,662.79h-59.6c-25.23,0-45.69-20.45-45.69-45.69V151.43c0-25.53,20.7-46.22,46.23-46.22h59.06V662.79z"
		/>
	<path class="st0" d="M440.33,389.13l-101,238.03l-101-238.03h25.81l75.19,181.23l75.19-181.23H440.33z"/>
	<path class="st0" d="M569.69,539.5h-84.75l-32.82,79.45h-25.81l101-238.04l101,238.04h-25.81L569.69,539.5z M560.13,516.51
		l-32.82-78.8l-32.82,78.8H560.13z"/>
	<path class="st0" d="M643.15,596.95l5.42-27.25c15.29,16.08,37.28,29.55,60.85,29.55c25.81,0,43.33-17.4,43.33-41.37
		c0-17.4-9.88-33.16-33.77-41.04l-14.66-4.93c-42.05-14.11-54.48-39.4-54.48-66.31c0-34.15,26.44-60.42,62.76-60.42
		c18.48,0,39.19,6.57,56.39,18.39l-4.78,25.94c-17.52-13.46-34.41-20.68-51.61-20.68c-22.94,0-38.23,15.43-38.23,36.78
		c0,17.72,8.92,31.84,38.55,41.69l14.66,4.93c34.41,11.48,50.02,36.11,50.02,65.33c0,37.76-28.04,65.34-68.18,65.34
		C680.75,622.89,657.81,609.75,643.15,596.95z"/>
	<path class="st0" d="M885.27,412.77v206.18h-24.21V412.77H796.7l4.46-23.64h144.01l4.46,23.64H885.27z"/>
	<path class="st0" d="M233.32,274.36c0-66.65,51.29-118.85,117.56-118.85c21.03,0,40.14,5.25,57.67,14.77l-4.78,25.28
		c-14.97-10.18-34.09-16.42-53.52-16.42c-50.66,0-91.44,42.02-91.44,95.21c0,53.18,40.46,95.21,91.44,95.21
		c21.35,0,39.51-6.9,56.39-18.39l4.78,25.28c-18.48,10.83-39.19,16.75-61.17,16.75C284.62,393.21,233.32,341,233.32,274.36z"/>
	<path class="st0" d="M569.69,309.81h-84.75l-32.82,79.45h-25.81l101-238.03l101,238.03h-25.81L569.69,309.81z M560.13,286.83
		l-32.82-78.79l-32.82,78.79H560.13z"/>
	<path class="st0" d="M646.76,367.27l5.42-27.25c15.29,16.09,37.28,29.55,60.85,29.55c25.81,0,43.33-17.4,43.33-41.36
		c0-17.4-9.88-33.16-33.77-41.04l-14.66-4.93c-42.05-14.12-54.48-39.39-54.48-66.31c0-34.15,26.44-60.41,62.76-60.41
		c18.48,0,39.19,6.56,56.39,18.39l-4.78,25.94c-17.52-13.46-34.41-20.69-51.61-20.69c-22.94,0-38.23,15.43-38.23,36.78
		c0,17.73,8.92,31.84,38.55,41.69l14.66,4.92c34.41,11.49,50.02,36.12,50.02,65.33c0,37.76-28.04,65.34-68.18,65.34
		C684.36,393.21,661.42,380.07,646.76,367.27z"/>
	<path class="st0" d="M884.74,183.08v206.18h-24.21V183.08h-64.36l4.46-23.64h144.01l4.46,23.64H884.74z"/>
	<path class="st0" d="M1106.15,365.63l-4.46,23.64H984.44V161.74l24.21-4.6v208.48H1106.15z"/>
	<path class="st0" d="M1275.31,365.63l-4.46,23.64H1150.1V159.44h116.29l4.46,23.64h-96.53v75.84h79.97v23.64h-79.97v83.06H1275.31z
		"/>
</g>
</svg>
